<svg xmlns="http://www.w3.org/2000/svg" viewBox="0 0 449.84 144.92"><title>Artboard 1all-thick</title><path d="M37.46,22.44C36.9,17,34,12,28.27,12c-6.71,0-10.07,5.67-10.07,18.69,0,13.5,3,20,11.66,20C36.1,50.64,40,45,41.21,39.37l12.94,2.8C50.08,56.47,41.21,62.61,26.51,62.61,14.86,62.61,0,53.51,0,31.79,0,9.58,14.38,0,29,0c15.1,0,23.4,10.22,24.6,21.24Z" style="fill:#ac162c"/><path d="M85.08,40.25c0-9.9-2.63-12.62-7-12.62s-7,2.72-7,12.62,2.63,12.62,7,12.62,7-2.71,7-12.62m-7,22.36c-13.34,0-22.68-8.22-22.68-22.36,0-13,8.79-22.36,22.68-22.36,12.94,0,22.68,8.71,22.68,22.36,0,13.5-9.11,22.36-22.68,22.36" style="fill:#ac162c"/><path d="M102.81,19h15v6.63H118c3-4.79,9.26-7.43,15-7.75V33.62a19.62,19.62,0,0,0-8.15-2.16c-2.79,0-4.79,1-7,2.87V61.5h-15Z" style="fill:#ac162c"/><path d="M135.32,19h15v6.07c3.67-3.67,8.31-7.19,13.82-7.19,4.07,0,12.22,2.32,12.22,12.86V61.5h-15V34.58c0-3-.72-6.15-4.55-6.15-2.24,0-4.31,1.84-6.47,3.83V61.5h-15Z" style="fill:#ac162c"/><path d="M208.16,34.9c.16-4.47-1.92-8.23-6.23-8.23-5.11,0-7,3.59-7,8.23ZM194.34,43c0,6.07,4.23,9.82,9.9,9.82a11.14,11.14,0,0,0,9.66-6.23l9.9,4.47c-5.19,7.59-12.3,11.5-22.44,11.5-13.34,0-22.68-8.22-22.68-22.36,0-13,8.79-22.36,22.68-22.36,12.62,0,22.44,7.35,22.44,24V43Z" style="fill:#ac162c"/><rect x="226.13" y="1.12" width="15.01" height="60.38" style="fill:#ac162c"/><rect x="247.13" y="1.12" width="15.02" height="60.38" style="fill:#ac162c"/><polygon points="2.41 71.12 47.86 71.12 47.86 83.58 19.67 83.58 19.67 94.52 37.72 94.52 37.72 106.98 19.67 106.98 19.67 118.56 48.74 118.56 48.74 131.5 2.41 131.5 2.41 71.12" style="fill:#231f20"/><path d="M52.58,89h15v6.07c3.67-3.67,8.3-7.19,13.82-7.19,4.07,0,12.22,2.32,12.22,12.86V131.5h-15V104.58c0-3-.72-6.15-4.55-6.15-2.24,0-4.31,1.84-6.47,3.84V131.5h-15Z" style="fill:#231f20"/><path d="M111.6,101.23a6.27,6.27,0,1,0,12.54-.08,6,6,0,0,0-6-6.07,6.45,6.45,0,0,0-6.55,6.15M115,130.38c-5.27,0-8.38.4-8.38,3.27,0,2.08,1.59,3.6,11.5,3.6,5.11,0,12-.56,12-3.28,0-3.19-7.67-3.59-15.1-3.59M143.55,97c-1.76-1-5.75-2.56-7.19-.24a7.11,7.11,0,0,1,1.2,3.83c0,8.47-6.63,13.74-18.61,13.74h-3.6c-3.59,0-3.91.88-3.91,1.92,0,1.6.88,1.76,3.75,2l8.07.56c9,.64,19.81,2.48,19.81,12.38,0,6.15-6.63,13.74-25.64,13.74-12.3,0-21.72-2.16-21.72-8.23,0-4.31,4.23-6.31,7.67-7.35v-.16c-3.11-1-6-3.2-6-6.87,0-5,5.67-8.14,9.66-9.42v-.16c-5-1.68-8.86-6-8.86-11.58,0-5.83,5.83-13.26,18.61-13.26,5.59,0,11.58.72,16.13,4.31,2.63-3.12,6.55-4.31,10.62-4.31Z" style="fill:#231f20"/><path d="M145.38,89h15V131.5h-15Zm0-17.89h15v12h-15Z" style="fill:#231f20"/><path d="M165.59,89h15v6.07c3.67-3.67,8.31-7.19,13.82-7.19,4.07,0,12.22,2.32,12.22,12.86V131.5h-15V104.58c0-3-.72-6.15-4.55-6.15-2.24,0-4.31,1.84-6.47,3.84V131.5h-15Z" style="fill:#231f20"/><path d="M239.39,104.9c.16-4.47-1.92-8.23-6.23-8.23-5.11,0-6.95,3.59-7,8.23ZM225.57,113c0,6.07,4.23,9.83,9.9,9.83a11.14,11.14,0,0,0,9.66-6.23l9.9,4.47c-5.19,7.59-12.3,11.5-22.44,11.5-13.34,0-22.68-8.22-22.68-22.36,0-13,8.79-22.36,22.68-22.36,12.62,0,22.44,7.35,22.44,24V113Z" style="fill:#231f20"/><path d="M285.87,104.9c.16-4.47-1.92-8.23-6.23-8.23-5.11,0-7,3.59-7,8.23ZM272.05,113c0,6.07,4.23,9.83,9.9,9.83a11.14,11.14,0,0,0,9.67-6.23l9.9,4.47c-5.19,7.59-12.3,11.5-22.44,11.5-13.34,0-22.68-8.22-22.68-22.36,0-13,8.78-22.36,22.68-22.36,12.62,0,22.44,7.35,22.44,24V113Z" style="fill:#231f20"/><path d="M304.8,89h15v6.63H320c3-4.79,9.27-7.43,15-7.75v15.73a19.63,19.63,0,0,0-8.15-2.16c-2.79,0-4.79,1-7,2.88V131.5h-15Z" style="fill:#231f20"/><path d="M338.66,89h15V131.5h-15Zm0-17.89h15v12h-15Z" style="fill:#231f20"/><path d="M358.87,89h15v6.07c3.67-3.67,8.31-7.19,13.82-7.19,4.07,0,12.22,2.32,12.22,12.86V131.5h-15V104.58c0-3-.72-6.15-4.55-6.15-2.24,0-4.31,1.84-6.47,3.84V131.5h-15Z" style="fill:#231f20"/><path d="M417.89,101.23a6.27,6.27,0,1,0,12.54-.08,6,6,0,0,0-6-6.07,6.45,6.45,0,0,0-6.55,6.15m3.43,29.15c-5.27,0-8.38.4-8.38,3.27,0,2.08,1.59,3.6,11.5,3.6,5.11,0,12-.56,12-3.28,0-3.19-7.67-3.59-15.09-3.59M449.84,97c-1.76-1-5.75-2.56-7.19-.24a7.1,7.1,0,0,1,1.2,3.83c0,8.47-6.63,13.74-18.61,13.74h-3.59c-3.59,0-3.91.88-3.91,1.92,0,1.6.88,1.76,3.75,2l8.07.56c9,.64,19.81,2.48,19.81,12.38,0,6.15-6.63,13.74-25.64,13.74-12.3,0-21.72-2.16-21.72-8.23,0-4.31,4.23-6.31,7.66-7.35v-.16c-3.11-1-6-3.2-6-6.87,0-5,5.67-8.14,9.67-9.42v-.16c-5-1.68-8.87-6-8.87-11.58,0-5.83,5.83-13.26,18.61-13.26,5.59,0,11.58.72,16.13,4.31,2.63-3.12,6.55-4.31,10.62-4.31Z" style="fill:#231f20"/></svg>