<?xml version="1.0" encoding="utf-8"?><svg version="1.1" id="Layer_1" xmlns="http://www.w3.org/2000/svg" xmlns:xlink="http://www.w3.org/1999/xlink" x="0px" y="0px" viewBox="0 0 119.36 122.88" style="enable-background:new 0 0 119.36 122.88" xml:space="preserve"><style type="text/css">.st0{fill-rule:evenodd;clip-rule:evenodd;}</style><g><path class="st0" d="M6.89,40.02h6.91v-1.6c0-2.14,0.43-4.18,1.2-6.04c0.81-1.93,1.98-3.68,3.45-5.14 c1.46-1.46,3.21-2.64,5.14-3.45c1.86-0.78,3.9-1.21,6.04-1.21h27.48v-0.14v-7.27c-0.45-0.16-0.87-0.37-1.28-0.6 c-0.57-0.34-1.1-0.75-1.56-1.21c-0.72-0.72-1.3-1.58-1.7-2.54c-0.38-0.92-0.59-1.94-0.59-2.99c0-1.06,0.21-2.07,0.59-2.99 c0.4-0.96,0.98-1.83,1.7-2.55c0.72-0.72,1.58-1.3,2.54-1.7C57.73,0.2,58.75,0,59.8,0c1.05,0,2.07,0.21,2.99,0.59 c0.96,0.4,1.83,0.98,2.55,1.7c0.72,0.72,1.3,1.58,1.7,2.55c0.38,0.92,0.59,1.94,0.59,2.99c0,1.06-0.21,2.07-0.59,2.99 c-0.4,0.96-0.98,1.83-1.7,2.54l-0.04,0.04c-0.46,0.45-0.97,0.85-1.53,1.18c-0.41,0.24-0.84,0.45-1.28,0.6v7.27v0.14h27.48 c2.14,0,4.18,0.43,6.04,1.21c1.94,0.81,3.68,1.98,5.14,3.45c1.46,1.46,2.64,3.21,3.45,5.14c0.78,1.87,1.2,3.9,1.2,6.04v1.6h6.66 c0.92,0,1.82,0.18,2.63,0.52c0.85,0.35,1.6,0.86,2.23,1.5l0.04,0.04c0.62,0.63,1.12,1.37,1.46,2.2c0.34,0.82,0.52,1.7,0.52,2.63 v18.38c0,0.92-0.18,1.82-0.52,2.63c-0.35,0.84-0.86,1.6-1.5,2.23l0,0c-1.24,1.24-2.97,2.02-4.87,2.02h-6.67 c-0.03,2.05-0.46,4.02-1.21,5.82c-0.81,1.94-1.98,3.68-3.45,5.14c-1.46,1.46-3.21,2.64-5.14,3.45c-1.87,0.78-3.9,1.2-6.04,1.2 H79.36v26.54h16.68c0.09-0.14,0.18-0.29,0.28-0.43c0.2-0.29,0.42-0.55,0.66-0.8c0.52-0.52,1.15-0.95,1.86-1.24 c0.68-0.28,1.42-0.43,2.19-0.43c0.76,0,1.52,0.15,2.19,0.43c0.71,0.29,1.33,0.72,1.86,1.24c0.52,0.52,0.95,1.15,1.24,1.86 c0.28,0.68,0.43,1.42,0.43,2.19c0,0.77-0.16,1.5-0.43,2.19c-0.29,0.71-0.72,1.34-1.24,1.86c-0.52,0.52-1.15,0.95-1.86,1.24 c-0.68,0.28-1.42,0.43-2.19,0.43c-0.75,0-1.47-0.14-2.15-0.42l-0.04-0.01c-0.71-0.29-1.33-0.72-1.86-1.24 c-0.32-0.32-0.61-0.7-0.85-1.09c-0.13-0.22-0.26-0.46-0.35-0.7H76.81c-0.71,0-1.34-0.29-1.81-0.75c-0.48-0.47-0.76-1.11-0.76-1.82 l0,0V87.79H61.83v24.23c0.19,0.1,0.38,0.2,0.56,0.32c0.34,0.21,0.66,0.48,0.94,0.75c0.53,0.53,0.95,1.15,1.24,1.86 c0.28,0.68,0.43,1.42,0.43,2.19c0,0.75-0.14,1.47-0.42,2.15l-0.01,0.04c-0.29,0.71-0.72,1.33-1.24,1.86 c-0.52,0.52-1.15,0.95-1.86,1.24c-0.68,0.28-1.42,0.43-2.19,0.43c-0.77,0-1.51-0.16-2.19-0.43c-0.71-0.29-1.34-0.72-1.86-1.24 c-0.52-0.52-0.95-1.15-1.24-1.86c-0.27-0.68-0.43-1.42-0.43-2.19c0-0.75,0.14-1.47,0.42-2.15l0.01-0.04 c0.29-0.71,0.72-1.33,1.24-1.86c0.27-0.28,0.58-0.52,0.91-0.73l0.04-0.03c0.18-0.1,0.37-0.2,0.56-0.3l0,0V87.79H40.18v13.37 c0,0.71-0.29,1.34-0.75,1.8c-0.47,0.47-1.1,0.75-1.81,0.75H25.88c-0.09,0.18-0.19,0.34-0.3,0.52c-0.2,0.3-0.43,0.59-0.7,0.85 l-0.05,0.04c-0.52,0.52-1.15,0.95-1.86,1.24c-0.68,0.28-1.42,0.43-2.19,0.43c-0.75,0-1.47-0.15-2.15-0.42l-0.04-0.01 c-0.71-0.29-1.33-0.72-1.86-1.24c-0.52-0.52-0.95-1.15-1.24-1.86c-0.28-0.68-0.43-1.42-0.43-2.19c0-0.76,0.16-1.51,0.43-2.2 c0.29-0.71,0.72-1.34,1.24-1.86c0.54-0.51,1.19-0.94,1.9-1.23l0,0c0.68-0.28,1.42-0.43,2.19-0.43c0.78,0,1.52,0.16,2.19,0.43 c0.68,0.29,1.3,0.7,1.81,1.22l0.04,0.03c0.29,0.29,0.56,0.62,0.78,0.97c0.11,0.19,0.23,0.39,0.33,0.61h9.11V87.79h-5.44 c-2.14,0-4.18-0.43-6.04-1.2c-1.94-0.81-3.68-1.98-5.14-3.45C16.99,81.68,15.81,79.93,15,78c-0.75-1.8-1.17-3.77-1.2-5.82H6.89 c-0.92,0-1.82-0.18-2.63-0.52c-0.85-0.35-1.6-0.86-2.23-1.5l-0.04-0.04c-0.62-0.63-1.12-1.37-1.46-2.2C0.18,67.11,0,66.21,0,65.29 V46.91c0-0.92,0.18-1.82,0.53-2.63c0.35-0.84,0.86-1.6,1.5-2.23l0,0c0.63-0.63,1.39-1.15,2.23-1.5 C5.07,40.21,5.96,40.02,6.89,40.02L6.89,40.02L6.89,40.02z M45.66,69.59c-0.14-0.11-0.25-0.22-0.36-0.36 c-0.32-0.39-0.49-0.84-0.5-1.29c-0.01-0.46,0.14-0.91,0.44-1.31c0.11-0.14,0.22-0.26,0.37-0.38c0.51-0.42,1.18-0.64,1.84-0.65 c0.66-0.01,1.32,0.18,1.85,0.58c1.81,1.39,3.59,2.4,5.36,3.07c1.75,0.66,3.48,0.97,5.19,0.95c1.72-0.02,3.46-0.38,5.24-1.05 c1.8-0.68,3.6-1.7,5.44-3.01c0.54-0.39,1.21-0.56,1.87-0.53c0.66,0.03,1.32,0.26,1.82,0.7c0.13,0.12,0.24,0.24,0.35,0.39 c0.29,0.41,0.43,0.87,0.4,1.33c-0.03,0.46-0.21,0.9-0.54,1.28c-0.12,0.13-0.25,0.25-0.41,0.36c-2.3,1.66-4.61,2.92-6.96,3.79 c-2.35,0.86-4.73,1.32-7.14,1.35c-2.42,0.03-4.81-0.38-7.19-1.24c-2.36-0.85-4.71-2.17-7.02-3.94L45.66,69.59L45.66,69.59 L45.66,69.59z M39.61,39.88c0.58,0,1.17,0.06,1.72,0.17c0.56,0.12,1.12,0.28,1.65,0.5c0.54,0.22,1.06,0.5,1.53,0.82 c0.47,0.31,0.9,0.66,1.29,1.05l0.06,0.05c0.41,0.41,0.78,0.85,1.1,1.34l0.02,0.03c0.31,0.47,0.58,0.97,0.8,1.51 c0.22,0.53,0.39,1.09,0.5,1.65c0.11,0.56,0.18,1.14,0.18,1.72c0,0.58-0.06,1.17-0.18,1.72C48.17,51,48,51.55,47.78,52.1 c-0.22,0.54-0.5,1.06-0.82,1.53c-0.97,1.46-2.36,2.59-3.98,3.25c-0.53,0.22-1.09,0.39-1.66,0.51c-0.56,0.11-1.14,0.16-1.72,0.16 c-0.58,0-1.17-0.06-1.72-0.16c-0.56-0.12-1.12-0.28-1.66-0.51c-0.54-0.22-1.06-0.5-1.54-0.82c-0.5-0.33-0.94-0.7-1.34-1.1 c-0.41-0.41-0.78-0.85-1.1-1.34l-0.02-0.03c-0.31-0.47-0.58-0.97-0.8-1.51c-0.22-0.53-0.39-1.09-0.51-1.65 c-0.11-0.56-0.16-1.14-0.16-1.72c0-0.58,0.06-1.17,0.16-1.72c0.12-0.56,0.28-1.12,0.51-1.65c0.22-0.54,0.5-1.06,0.82-1.53 c0.33-0.5,0.7-0.94,1.1-1.34c0.41-0.41,0.85-0.78,1.34-1.1l0.03-0.02c0.47-0.31,0.97-0.58,1.51-0.8c0.53-0.22,1.09-0.39,1.65-0.5 C38.44,39.94,39.02,39.88,39.61,39.88L39.61,39.88L39.61,39.88z M80,39.88c0.58,0,1.17,0.06,1.72,0.17 c0.56,0.12,1.12,0.28,1.65,0.5c0.54,0.22,1.06,0.5,1.53,0.82c0.46,0.31,0.88,0.65,1.27,1.04c0.02,0.02,0.05,0.04,0.07,0.06 c0.41,0.41,0.78,0.85,1.1,1.34l0.02,0.03c0.31,0.47,0.58,0.97,0.8,1.51c0.22,0.53,0.39,1.09,0.51,1.65 c0.11,0.56,0.16,1.14,0.16,1.72c0,0.58-0.06,1.17-0.16,1.72c-0.12,0.56-0.28,1.12-0.51,1.66c-0.22,0.54-0.5,1.06-0.82,1.53 c-0.33,0.5-0.7,0.94-1.1,1.34c-0.41,0.41-0.85,0.78-1.34,1.1l-0.03,0.02c-0.48,0.31-0.97,0.58-1.51,0.8 c-0.53,0.22-1.09,0.39-1.66,0.51c-0.56,0.11-1.14,0.16-1.72,0.16c-0.58,0-1.17-0.06-1.72-0.16c-0.56-0.12-1.12-0.28-1.66-0.51 c-0.55-0.23-1.07-0.51-1.53-0.82l-0.05-0.04c-0.47-0.32-0.9-0.67-1.29-1.06c-0.41-0.41-0.78-0.85-1.1-1.34l-0.02-0.03 c-0.31-0.47-0.58-0.97-0.8-1.51c-0.22-0.53-0.39-1.09-0.51-1.65c-0.11-0.56-0.17-1.14-0.17-1.72c0-0.58,0.06-1.17,0.17-1.72 c0.12-0.56,0.28-1.12,0.51-1.65c0.22-0.54,0.5-1.06,0.82-1.53c0.33-0.5,0.7-0.94,1.1-1.34c0.4-0.4,0.85-0.77,1.34-1.1 c0.48-0.32,0.99-0.59,1.53-0.83c0.53-0.22,1.09-0.39,1.65-0.5C78.84,39.94,79.42,39.88,80,39.88L80,39.88L80,39.88z M17.67,41.97 v29.99c0,1.61,0.32,3.15,0.9,4.56c0.61,1.46,1.5,2.78,2.6,3.89c1.11,1.11,2.43,2,3.89,2.6c1.4,0.58,2.94,0.9,4.56,0.9h60.36 c1.61,0,3.15-0.32,4.56-0.9c1.46-0.61,2.78-1.5,3.89-2.6c1.11-1.11,2-2.43,2.6-3.89c0.58-1.4,0.9-2.94,0.9-4.56V38.42 c0-1.61-0.32-3.16-0.9-4.56c-0.61-1.46-1.5-2.78-2.6-3.89c-1.11-1.11-2.43-2-3.89-2.6c-1.4-0.58-2.94-0.9-4.56-0.9H29.63 c-1.61,0-3.15,0.32-4.56,0.9c-1.46,0.61-2.78,1.5-3.89,2.6c-1.11,1.11-2,2.43-2.6,3.89c-0.58,1.4-0.9,2.94-0.9,4.56L17.67,41.97 L17.67,41.97L17.67,41.97z M13.79,43.9H6.89c-0.41,0-0.8,0.08-1.15,0.22c-0.37,0.16-0.7,0.38-0.98,0.66l-0.04,0.03 c-0.26,0.27-0.48,0.59-0.62,0.94c-0.15,0.35-0.22,0.74-0.22,1.15v18.38c0,0.41,0.08,0.8,0.22,1.15c0.16,0.37,0.38,0.7,0.66,0.98 c0.54,0.54,1.29,0.88,2.12,0.88h6.91L13.79,43.9L13.79,43.9L13.79,43.9z M112.48,43.9h-6.66v24.39h6.66c0.41,0,0.8-0.08,1.15-0.22 c0.37-0.16,0.7-0.38,0.98-0.66c0.28-0.28,0.51-0.61,0.66-0.98c0.15-0.35,0.22-0.74,0.22-1.15V46.91c0-0.41-0.08-0.8-0.22-1.15 c-0.16-0.37-0.38-0.7-0.66-0.98l0,0c-0.28-0.28-0.61-0.51-0.98-0.66C113.28,43.99,112.89,43.9,112.48,43.9L112.48,43.9L112.48,43.9 z"/></g></svg>